# xmcd
#
# Track frame offsets:
#	150
#	20932
#	47019
#	49433
#	66498
#	83725
#	102622
#	120541
#	137933
#	155380
#	175410
#	191879
#
# Disc length: 3148 seconds
#
# Revision: 0
# Processed by: cddbd v1.4PL0 Copyright (c) Steve Scherf et al.
# Submitted via: OrangeCD 4.1
#
DISCID=b80c4a0c
DTITLE=William Howse and Jack Pearson - William Howse and Jack Pearson
DYEAR=1900
DGENRE=
TTITLE0=I Can't Stop Tumbling
TTITLE1=Blackbird
TTITLE2=I Feel All Right
TTITLE3=Minkslide Blues
TTITLE4=Mr. Engineer
TTITLE5=My Dog Don't Bark
TTITLE6=Every Time It Rains
TTITLE7=Feel Like
TTITLE8=Turn To Blue
TTITLE9=JB Blues
TTITLE10=Waiting On Your Love
TTITLE11=It Won't Change A Thing
EXTD=
EXTT0=
EXTT1=
EXTT2=
EXTT3=
EXTT4=
EXTT5=
EXTT6=
EXTT7=
EXTT8=
EXTT9=
EXTT10=
EXTT11=
PLAYORDER=
